<svg xmlns="http://www.w3.org/2000/svg" width="181" height="51" viewBox="0 0 181 51" fill="none"><path d="M36.7181 18.1364C36.7181 7.36785 44.3193 0 55.3811 0C63.1076 0 70.9576 3.40067 72.4408 13.9338H63.7924C62.5046 9.76496 59.408 7.9024 55.3861 7.9024C49.9128 7.894 45.7373 12.0646 45.7373 18.1364C45.7373 24.2081 49.9128 28.3787 55.3912 28.3787C59.413 28.3787 62.5096 26.4758 63.7974 22.2649H72.4458C70.9559 32.8317 63.1543 36.2727 55.3912 36.2727C44.3243 36.2727 36.7181 28.8629 36.7181 18.1364ZM99.4232 35.138L94.2405 25.4639H84.1523V35.138H75.053V1.133H93.3552C102.485 1.133 107.474 5.30357 107.474 13.5623C107.474 18.2574 105.261 21.6581 102.002 23.6013L108.397 35.138H99.4232ZM84.1523 18.5415H92.8007C96.4602 18.5415 98.431 16.8403 98.431 13.643C98.431 10.4458 96.4602 8.74459 92.8007 8.74459H84.1523V18.5415ZM109.282 18.1364C109.282 7.36785 116.798 0 128.067 0C139.288 0 146.811 7.36785 146.811 18.1364C146.811 28.8629 139.295 36.2727 128.067 36.2727C116.805 36.2727 109.282 28.8629 109.282 18.1364ZM137.843 18.1364C137.843 11.8612 133.539 7.894 128.069 7.894C122.557 7.894 118.295 11.8612 118.295 18.1364C118.295 24.3712 122.557 28.3787 128.069 28.3787C133.537 28.3787 137.842 24.3712 137.842 18.1364H137.843ZM148.421 24.3292H156.627C156.827 27.2037 159.24 29.0663 164.55 29.0663C169.457 29.1066 171.991 27.5281 171.991 25.2201C171.991 23.2769 170.543 22.1035 166.761 21.4967L162.539 20.7671C156.104 19.6745 149.306 18.2574 149.306 10.4441C149.306 3.92683 154.736 0 164.59 0C173.721 0 180.035 2.95521 180.035 11.8208H171.911C171.428 9.027 169.215 7.16612 164.43 7.16612C160.126 7.16612 158.034 8.62356 158.034 10.8492C158.034 12.5907 159.321 13.8448 162.459 14.3793L166.118 15.0282C172.632 16.2049 181 17.0118 181 25.5126C181 32.5157 175.41 36.3215 164.55 36.2811C153.769 36.2727 148.299 32.593 148.419 24.3292H148.421ZM19.2259 29.4798L9.3716 35.138H0L12.8707 1.133H25.5811L38.4518 35.138H29.0802L19.2259 29.4798ZM26.8454 25.0772L20.0694 9.71621H18.4209L11.6064 25.0772L19.2259 21.6328L26.8454 25.0772ZM76.2288 49.5711H72.7715L72.3372 50.7479H70.6236L73.3377 43.6876H75.676L78.3984 50.7479H76.6631L76.2288 49.5711ZM75.7612 48.302L74.6588 45.2762H74.3415L73.2391 48.302H75.7612ZM89.6407 47.2261C89.6407 49.2433 88.6051 50.7563 85.8827 50.7563H82.6592V43.696H85.8827C88.6051 43.6977 89.6407 45.219 89.6407 47.2278V47.2261ZM87.9705 47.2261C87.9705 45.8645 87.2356 45.1081 85.8743 45.1081H84.3377L84.321 49.3442H85.8743C87.2356 49.3459 87.9705 48.5894 87.9705 47.2278V47.2261ZM93.8162 43.696H95.5366L97.5909 49.1677H97.808L99.8624 43.696H101.591L98.8686 50.7563H96.5303L93.8162 43.696ZM105.858 43.696H111.763V45.0661H107.535V46.6126H111.627V47.8229H107.535V49.3778H111.778V50.7563H105.865L105.858 43.696ZM121.367 50.7563L120.214 48.655H117.951V50.7563H116.281V43.696H119.965C121.844 43.696 122.838 44.5786 122.838 46.2259C122.853 46.6523 122.75 47.0745 122.539 47.4445C122.328 47.8145 122.017 48.1174 121.644 48.3188L123.013 50.7563H121.367ZM117.951 47.369H119.895C120.73 47.369 121.206 46.9824 121.206 46.2344C121.206 45.4863 120.738 45.0997 119.895 45.0997H117.966L117.951 47.369ZM134.269 45.0997H131.638V50.7563H129.968V45.1014H127.346V43.6977H134.271L134.269 45.0997ZM138.743 43.696H140.405V50.7563H138.743V43.696ZM144.756 48.5709H146.259C146.318 49.2433 146.861 49.6552 148.013 49.6636C149.099 49.6636 149.693 49.2938 149.693 48.739C149.693 48.2516 149.299 48.0078 148.464 47.8649L147.596 47.7136C146.259 47.4783 144.948 47.1253 144.948 45.5872C144.948 44.2508 146.067 43.4607 148.03 43.4607C149.867 43.4607 151.128 44.1079 151.147 45.8561H149.643C149.533 45.2173 149.04 44.7887 147.988 44.7887C147.036 44.7887 146.535 45.1249 146.535 45.6628C146.535 46.0915 146.869 46.3604 147.596 46.5033L148.356 46.6378C149.692 46.8815 151.339 47.1085 151.339 48.7979C151.339 50.2015 150.194 51 147.998 51C145.892 50.9933 144.765 50.2284 144.781 48.5726L144.756 48.5709ZM155.721 43.696H157.391V50.7563H155.721V43.696ZM161.909 43.696H163.838L167.095 48.4449H167.262V43.6977H168.893V50.7579H166.995L163.697 46.0091H163.546V50.7579H161.918L161.909 43.696ZM180.691 50.7563H179.647L179.63 49.7308C179.146 50.4705 178.261 50.9916 177.017 50.9916C174.895 50.9916 173.275 49.4451 173.275 47.2261C173.275 45.0072 174.845 43.4607 177.15 43.4607C178.67 43.4607 180.207 44.1751 180.582 45.9486H178.912C178.645 45.3098 178.01 44.9148 177.167 44.9148C175.864 44.9148 174.912 45.8645 174.912 47.2261C174.912 48.5878 175.872 49.5375 177.133 49.5375C177.835 49.5375 178.812 49.2265 179.054 48.1591H177.017V47.0244H180.683L180.691 50.7563ZM66.154 44.9282H0V49.5392H66.154V44.9282Z" fill="url(#paint0_linear_564_164)"></path><defs><linearGradient id="paint0_linear_564_164" x1="0" y1="25.4975" x2="180.998" y2="25.4975" gradientUnits="userSpaceOnUse"><stop stop-color="#AA00FF"></stop><stop offset="0.15" stop-color="#9B03F2"></stop><stop offset="0.43" stop-color="#720CD0"></stop><stop offset="0.8" stop-color="#351A9C"></stop></linearGradient></defs></svg>