<svg xmlns="http://www.w3.org/2000/svg" xmlns:xlink="http://www.w3.org/1999/xlink" id="Layer_1" data-name="Layer 1" viewBox="418.16 432.11 1083.69 215.83"><defs><style>.cls-1{fill:url(#linear-gradient);}</style><linearGradient id="linear-gradient" x1="418.16" y1="540" x2="1501.84" y2="540" gradientUnits="userSpaceOnUse"><stop offset="0" stop-color="#a0f"/><stop offset="0.15" stop-color="#9b03f2"/><stop offset="0.43" stop-color="#720cd0"/><stop offset="0.8" stop-color="#351a9c"/></linearGradient></defs><path class="cls-1" d="M638,540c0-64.06,45.51-107.89,111.74-107.89C796,432.11,843,452.34,851.88,515H800.1c-7.71-24.8-26.25-35.88-50.33-35.88C717,479.07,692,503.88,692,540s25,60.93,57.8,60.93c24.08,0,42.62-11.32,50.33-36.37h51.78c-8.92,62.86-55.63,83.33-102.11,83.33C683.54,647.89,638,603.81,638,540Zm375.43,101.14L982.4,583.59H922v57.55H867.52V438.85H977.1c54.66,0,84.53,24.81,84.53,73.94,0,27.93-13.25,48.16-32.76,59.72l38.29,68.63ZM922,542.41h51.78c21.91,0,33.71-10.12,33.71-29.14s-11.8-29.14-33.71-29.14H922ZM1072.46,540c0-64.06,45-107.89,112.47-107.89,67.18,0,112.22,43.83,112.22,107.89,0,63.81-45,107.89-112.22,107.89C1117.5,647.89,1072.46,603.81,1072.46,540Zm171,0c0-37.33-25.77-60.93-58.52-60.93-33,0-58.52,23.6-58.52,60.93,0,37.09,25.52,60.93,58.52,60.93C1217.68,600.93,1243.45,577.09,1243.45,540Zm63.33,36.84h49.13c1.2,17.1,15.65,28.18,47.44,28.18,29.38.24,44.55-9.15,44.55-22.88,0-11.56-8.67-18.54-31.31-22.15l-25.28-4.34c-38.53-6.5-79.23-14.93-79.23-61.41,0-38.77,32.51-62.13,91.51-62.13,54.67,0,92.47,17.58,92.47,70.32h-48.64c-2.89-16.62-16.14-27.69-44.79-27.69-25.77,0-38.29,8.67-38.29,21.91,0,10.36,7.7,17.82,26.49,21l21.91,3.86c39,7,89.1,11.8,89.1,62.37,0,41.66-33.47,64.3-98.49,64.06C1338.81,647.89,1306.06,626,1306.78,576.84ZM533.27,607.48l-59,33.66H418.16l77.06-202.29h76.1l77.06,202.29H592.27Zm45.62-26.19-40.57-91.38h-9.87l-40.8,91.38,45.62-20.49Z"/></svg>